<?xml version="1.0" encoding="UTF-8" standalone="no"?>
<!DOCTYPE svg PUBLIC "-//W3C//DTD SVG 1.1//EN" "http://www.w3.org/Graphics/SVG/1.1/DTD/svg11.dtd">
<svg width="100%" height="100%" viewBox="0 0 588 273" version="1.1" xmlns="http://www.w3.org/2000/svg" xmlns:xlink="http://www.w3.org/1999/xlink" xml:space="preserve" xmlns:serif="http://www.serif.com/" style="fill-rule:evenodd;clip-rule:evenodd;stroke-linejoin:round;stroke-miterlimit:2;">
    <g transform="matrix(1,0,0,1,-120.533,-127.211)">
        <g transform="matrix(1.0989,0,0,0.87924,-9.57342,13.5381)">
            <rect x="127.496" y="140.659" width="516.848" height="286.627" style="fill:white;"/>
            <path d="M653.444,140.659C653.444,134.378 649.37,129.286 644.345,129.286L127.496,129.286C122.47,129.286 118.396,134.378 118.396,140.659L118.396,427.287C118.396,433.568 122.47,438.66 127.496,438.66L644.345,438.66C649.37,438.66 653.444,433.568 653.444,427.287L653.444,140.659ZM644.345,140.659L127.496,140.659L127.496,427.287L644.345,427.287L644.345,140.659Z" style="fill:rgb(9,24,152);"/>
        </g>
        <g transform="matrix(1,0,0,1,-8,0)">
            <g transform="matrix(1.17873,0,0,0.85038,-30.9186,17.083)">
                <rect x="170.091" y="190.541" width="163.14" height="212.576" style="fill:white;"/>
                <path d="M337.049,190.541C337.049,187.619 335.34,185.249 333.232,185.249L170.091,185.249C167.983,185.249 166.274,187.619 166.274,190.541L166.274,403.117C166.274,406.04 167.983,408.409 170.091,408.409L333.232,408.409C335.34,408.409 337.049,406.04 337.049,403.117L337.049,190.541ZM333.232,190.541L170.091,190.541L170.091,403.117L333.232,403.117L333.232,190.541Z" style="fill:rgb(9,24,152);"/>
            </g>
            <g transform="matrix(0.87986,0,0,0.0549816,35.5529,196.699)">
                <rect x="170.091" y="190.541" width="163.14" height="212.576" style="fill:rgb(10,23,152);"/>
                <path d="M333.232,190.541L170.091,190.541L170.091,403.117L333.232,403.117L333.232,190.541ZM328.117,272.387L328.117,321.272C328.117,321.272 175.206,321.272 175.206,321.272C175.206,321.272 175.206,272.387 175.206,272.387C175.206,272.387 328.117,272.387 328.117,272.387L328.117,272.387Z" style="fill:rgb(9,24,152);"/>
            </g>
            <g transform="matrix(0.775183,0,0,0.0549816,53.3575,302.713)">
                <rect x="170.091" y="190.541" width="163.14" height="212.576" style="fill:rgb(10,23,152);"/>
                <path d="M333.232,190.541L170.091,190.541L170.091,403.117L333.232,403.117L333.232,190.541ZM327.427,272.387L327.427,321.272C327.427,321.272 175.897,321.272 175.897,321.272C175.897,321.272 175.897,272.387 175.897,272.387L327.427,272.387Z" style="fill:rgb(9,24,152);"/>
            </g>
            <g transform="matrix(0.685643,0,0,0.0549816,68.5876,233.086)">
                <rect x="170.091" y="190.541" width="163.14" height="212.576" style="fill:rgb(10,23,152);"/>
                <path d="M333.232,190.541L170.091,190.541L170.091,403.117L333.232,403.117L333.232,190.541ZM326.669,272.387L326.669,321.272C326.669,321.272 176.655,321.272 176.655,321.272C176.655,321.272 176.655,272.387 176.655,272.387L326.669,272.387Z" style="fill:rgb(9,24,152);"/>
            </g>
            <g transform="matrix(0.582718,0,0,0.0549816,86.0942,267.525)">
                <rect x="170.091" y="190.541" width="163.14" height="212.576" style="fill:rgb(10,23,152);"/>
                <path d="M333.232,190.541L170.091,190.541L170.091,403.117L333.232,403.117L333.232,190.541ZM325.509,272.387L325.509,321.272C325.509,321.272 177.814,321.272 177.814,321.272C177.814,321.272 177.814,272.387 177.814,272.387L325.509,272.387Z" style="fill:rgb(9,24,152);"/>
            </g>
            <g transform="matrix(0.789914,-0.613217,0.613217,0.789914,-18.7002,471.606)">
                <g transform="matrix(0.163334,0,0,0.185644,491.748,-6.24974)">
                    <rect x="170.091" y="190.541" width="163.14" height="212.576" style="fill:rgb(10,23,152);"/>
                    <path d="M333.232,190.541L170.091,190.541L170.091,403.117L333.232,403.117L333.232,190.541ZM305.681,214.781L305.681,378.877C305.681,378.877 197.642,378.877 197.642,378.877C197.642,378.877 197.642,214.781 197.642,214.781L305.681,214.781Z" style="fill:rgb(9,24,152);"/>
                </g>
                <g transform="matrix(0.680083,0,0,0.185644,288.324,-6.24974)">
                    <rect x="170.091" y="190.541" width="163.14" height="212.576" style="fill:white;"/>
                    <path d="M333.232,190.541L170.091,190.541L170.091,403.117L333.232,403.117L333.232,190.541ZM326.615,214.781L326.615,378.877C326.615,378.877 176.708,378.877 176.708,378.877C176.708,378.877 176.708,214.781 176.708,214.781L326.615,214.781Z" style="fill:rgb(9,24,152);"/>
                </g>
                <g transform="matrix(6.20121e-17,-1.01274,1,6.12323e-17,330.413,410.439)">
                    <path d="M357.037,29.123L376.521,68.587L337.553,68.587L357.037,29.123Z" style="fill:rgb(10,23,152);"/>
                    <path d="M357.037,29.123L376.521,68.587L337.553,68.587L357.037,29.123ZM357.037,39.185L369.331,64.087C369.331,64.087 344.743,64.087 344.743,64.087L357.037,39.185Z" style="fill:rgb(9,24,152);"/>
                </g>
            </g>
        </g>
        <g transform="matrix(1,0,0,1,0,2.05096)">
            <g transform="matrix(1,0,0,1,-32.6486,56.6317)">
                <text x="440.157px" y="224.959px" style="font-family:'ArialMT', 'Arial', sans-serif;font-size:64px;fill:rgb(10,23,152);">V<tspan x="479.313px 514.907px " y="224.959px 224.959px ">or</tspan>kasse</text>
            </g>
            <g transform="matrix(1,0,0,1,-18.1326,120.885)">
                <text x="435.574px" y="200.59px" style="font-family:'Arial-BoldMT', 'Arial', sans-serif;font-weight:700;font-size:30px;">per Überweisung</text>
            </g>
        </g>
    </g>
</svg>
